<svg width="343" height="250" viewBox="0 0 343 250" fill="none" xmlns="http://www.w3.org/2000/svg">
<path d="M270.492 117.19L308.996 216.426L307.468 217.018L268.964 117.782L270.492 117.19Z" fill="white"/>
<path d="M291.14 114.42L332.818 224.768L331.281 225.346L289.602 114.998L291.14 114.42Z" fill="white"/>
<path fill-rule="evenodd" clip-rule="evenodd" d="M264.192 113.744L269.997 112.68L262.411 249.114H252.399L264.192 113.744Z" fill="white"/>
<path fill-rule="evenodd" clip-rule="evenodd" d="M265.829 115.221L254.287 247.399L260.731 247.382L268.089 114.812L265.829 115.221Z" fill="#33377A"/>
<path fill-rule="evenodd" clip-rule="evenodd" d="M269.998 112.68L271.259 113.158L267.555 249.176H261.368L269.998 112.68Z" fill="white"/>
<path d="M139.35 9.99512L220.976 191.952L264.415 117.28L265.834 118.103L221.594 194.158L220.786 195.54L220.133 194.081L137.852 10.6639L139.35 9.99512Z" fill="white"/>
<path fill-rule="evenodd" clip-rule="evenodd" d="M125.975 9.68394L136.242 7.80522L122.826 248.992H105.133L125.975 9.68394Z" fill="white"/>
<path fill-rule="evenodd" clip-rule="evenodd" d="M128.874 12.2943L108.468 245.969L119.861 245.941L132.859 11.5767L128.874 12.2943Z" fill="#33377A"/>
<path fill-rule="evenodd" clip-rule="evenodd" d="M136.24 7.80521L139.695 9.72809L134.366 249.694L120.975 249.111L136.24 7.80521Z" fill="white"/>
<path d="M182.226 4.04549L250.934 191.081L282.998 115.035L284.507 115.674L251.633 193.638L250.827 195.554L250.109 193.601L180.684 4.61214L182.226 4.04549Z" fill="white"/>
<path fill-rule="evenodd" clip-rule="evenodd" d="M64.4623 129.926L0.041748 134.529L315.001 230.911L342.839 230.888L64.4623 129.926Z" fill="white"/>
<path fill-rule="evenodd" clip-rule="evenodd" d="M64.4624 115.899L0 121.593V134.621L64.4624 129.926V115.899Z" fill="white"/>
<path fill-rule="evenodd" clip-rule="evenodd" d="M64.4623 129.926L342.839 230.888V228.503L64.4623 115.899V129.926Z" fill="white"/>
<path fill-rule="evenodd" clip-rule="evenodd" d="M66.4365 128.544L298.706 212.78L66.4365 118.83V128.544Z" fill="#33377A"/>
<path fill-rule="evenodd" clip-rule="evenodd" d="M288.567 108.268L282.373 109.395L290.501 249.114H301.771L288.567 108.268Z" fill="white"/>
<path fill-rule="evenodd" clip-rule="evenodd" d="M286.795 110.428L284.391 110.86L292.34 247.297L299.586 247.281L286.795 110.428Z" fill="#33377A"/>
<path fill-rule="evenodd" clip-rule="evenodd" d="M288.555 108.27L290.417 109.406L306.149 249.264L301.49 249.103L288.555 108.27Z" fill="white"/>
<path fill-rule="evenodd" clip-rule="evenodd" d="M179.008 -3.05176e-05L168.06 1.99715L182.431 248.992H202.351L179.008 -3.05176e-05Z" fill="white"/>
<path fill-rule="evenodd" clip-rule="evenodd" d="M175.879 3.82707L171.63 4.59113L185.689 245.788L198.492 245.757L175.879 3.82707Z" fill="#33377A"/>
<path fill-rule="evenodd" clip-rule="evenodd" d="M178.993 0.0115051L182.263 1.52797L210.087 249.264L201.859 248.981L178.993 0.0115051Z" fill="white"/>
<path d="M170.499 4.4611L71.5943 119.684L67.2748 118.207L169.27 2.93071L170.499 4.4611Z" fill="white"/>
<path d="M127.59 13.1071L10.6756 123.73L5.80347 123.047L126.47 11.0124L127.59 13.1071Z" fill="white"/>
</svg>

