<svg width="570" height="150" viewBox="0 0 570 150" fill="none" xmlns="http://www.w3.org/2000/svg">
<path fill-rule="evenodd" clip-rule="evenodd" d="M172.412 32.6923C203.046 16.383 245.163 0.057373 291.039 0.057373C341.242 0.057373 380.058 16.3823 406.321 32.7075C419.452 40.8698 429.447 49.0329 436.161 55.1576C439.518 58.22 442.055 60.7731 443.754 62.5621C444.603 63.4566 445.244 64.1601 445.672 64.6409C445.886 64.8812 446.047 65.0659 446.156 65.1908C446.184 65.2241 446.209 65.2531 446.231 65.2779C446.249 65.2996 446.265 65.318 446.278 65.333L446.309 65.3696L446.317 65.3791L446.319 65.3817C446.319 65.3823 446.32 65.3827 445.973 65.6744L446.319 65.3817L446.426 65.5092V149.208H444.974L444.866 148.907C441.977 140.823 429.587 108.792 404.872 78.7896C380.16 48.791 343.161 20.8603 291.039 20.8603C239.916 20.8603 200.135 48.7966 172.148 78.8105C144.163 108.823 128.018 140.863 124.177 148.949L124.054 149.208H122.418V65.4648L122.578 65.3289L122.871 65.6744C122.578 65.3289 122.577 65.3295 122.578 65.3289L122.581 65.3256L122.592 65.3164L122.635 65.2803C122.673 65.2486 122.729 65.2014 122.803 65.1393C122.952 65.015 123.174 64.8311 123.467 64.5915C124.053 64.1124 124.923 63.4104 126.063 62.5174C128.342 60.7316 131.698 58.1818 136.012 55.1227C144.638 49.0047 157.093 40.8485 172.412 32.6923ZM123.325 65.8855V148.301H123.481C127.552 139.772 143.698 107.99 171.485 78.1919C199.558 48.085 239.563 19.9532 291.039 19.9532C343.526 19.9532 380.758 48.0905 405.572 78.2129C429.847 107.681 442.273 139.087 445.519 148.042V65.8416C445.504 65.8242 445.487 65.8051 445.469 65.7841C445.364 65.6625 445.206 65.4813 444.995 65.2444C444.573 64.7705 443.939 64.0741 443.096 63.1868C441.411 61.4122 438.889 58.8744 435.549 55.8277C428.87 49.7342 418.919 41.6064 405.842 33.4779C379.689 17.2213 341.038 0.964461 291.039 0.964461C245.369 0.964461 203.403 17.2206 172.839 33.493C157.559 41.6277 145.137 49.7623 136.536 55.8626C132.236 58.9126 128.891 61.4537 126.622 63.2314C125.488 64.1203 124.623 64.8183 124.041 65.2937C123.751 65.5314 123.531 65.7134 123.385 65.8357C123.363 65.8536 123.343 65.8702 123.325 65.8855Z" fill="white"/>
<path fill-rule="evenodd" clip-rule="evenodd" d="M172.412 40.6323C203.046 24.3194 245.163 7.99011 291.039 7.99011C341.243 7.99011 380.058 24.3186 406.321 40.6475C419.452 48.8116 429.447 56.9765 436.161 63.1025C439.518 66.1656 442.055 68.7193 443.754 70.5087C444.604 71.4034 445.244 72.1071 445.672 72.5879C445.886 72.8283 446.048 73.013 446.156 73.138C446.21 73.2005 446.25 73.2481 446.278 73.2802L446.309 73.3168L446.319 73.3289C446.32 73.3295 446.32 73.3299 445.973 73.6216L446.319 73.3289L446.426 73.4564V149.208H441.927L441.811 148.927C435.565 133.759 421.224 103.715 396.759 77.469C372.299 51.2288 337.742 28.8075 291.039 28.8075C245.236 28.8075 208.539 51.2321 181.268 77.4865C153.996 103.742 136.186 133.795 128.171 148.967L128.043 149.208H122.418V73.412L122.578 73.2761L122.871 73.6216C122.578 73.2761 122.577 73.2767 122.578 73.2761L122.581 73.2728L122.592 73.2636L122.635 73.2275C122.673 73.1957 122.729 73.1485 122.803 73.0864C122.952 72.9622 123.174 72.7782 123.467 72.5386C124.053 72.0593 124.923 71.3572 126.063 70.464C128.342 68.6778 131.698 66.1274 136.011 63.0676C144.638 56.9483 157.093 48.7903 172.412 40.6323ZM123.325 73.8327V148.301H127.496C135.594 133.011 153.414 103.043 180.639 76.833C208.009 50.4833 244.92 27.9004 291.039 27.9004C338.066 27.9004 372.847 50.4867 397.423 76.8505C421.842 103.048 436.207 132.996 442.534 148.301H445.519V73.7888C445.504 73.7714 445.487 73.7522 445.469 73.7312C445.395 73.6449 445.293 73.5285 445.165 73.3835C445.113 73.3242 445.056 73.2601 444.995 73.1913C444.573 72.7174 443.939 72.0208 443.096 71.1333C441.411 69.3583 438.889 66.8199 435.549 63.7726C428.87 57.6777 418.919 49.5481 405.842 41.4178C379.689 25.1576 341.038 8.8972 291.039 8.8972C245.369 8.8972 203.403 25.1569 172.839 41.4329C157.559 49.5694 145.137 57.7059 136.536 63.8075C132.236 66.8581 128.891 69.3998 126.622 71.178C125.488 72.067 124.623 72.7652 124.041 73.2407C123.751 73.4784 123.531 73.6604 123.385 73.7828C123.363 73.8007 123.343 73.8174 123.325 73.8327Z" fill="white"/>
<path fill-rule="evenodd" clip-rule="evenodd" d="M140.276 118.889V60.2422H141.184V118.889H140.276Z" fill="white"/>
<path fill-rule="evenodd" clip-rule="evenodd" d="M164.218 86.6399V45.3889H165.125V86.6399H164.218Z" fill="white"/>
<path fill-rule="evenodd" clip-rule="evenodd" d="M188.174 84.2269V33.0497H189.081V84.2269H188.174Z" fill="white"/>
<path fill-rule="evenodd" clip-rule="evenodd" d="M212.115 84.227V23.1525H213.022V84.227H212.115Z" fill="white"/>
<path fill-rule="evenodd" clip-rule="evenodd" d="M236.071 84.2269V15.8269H236.978V84.2269H236.071Z" fill="white"/>
<path fill-rule="evenodd" clip-rule="evenodd" d="M260.013 84.227V10.6832H260.92V84.227H260.013Z" fill="white"/>
<path fill-rule="evenodd" clip-rule="evenodd" d="M283.969 84.227V8.68933H284.876V84.227H283.969Z" fill="white"/>
<path fill-rule="evenodd" clip-rule="evenodd" d="M307.91 84.2269V9.16602H308.817V84.2269H307.91Z" fill="white"/>
<path fill-rule="evenodd" clip-rule="evenodd" d="M331.866 84.227V12.3882H332.773V84.227H331.866Z" fill="white"/>
<path fill-rule="evenodd" clip-rule="evenodd" d="M355.822 84.2269V18.2109H356.729V84.2269H355.822Z" fill="white"/>
<path fill-rule="evenodd" clip-rule="evenodd" d="M379.763 84.227V27.2992H380.67V84.227H379.763Z" fill="white"/>
<path fill-rule="evenodd" clip-rule="evenodd" d="M403.719 84.6894V39.8407H404.626V84.6894H403.719Z" fill="white"/>
<path fill-rule="evenodd" clip-rule="evenodd" d="M427.661 111.636V56.8179H428.568V111.636H427.661Z" fill="white"/>
<path fill-rule="evenodd" clip-rule="evenodd" d="M140.308 119.056L122.449 73.7736L123.293 73.4408L141.152 118.723L140.308 119.056Z" fill="white"/>
<path fill-rule="evenodd" clip-rule="evenodd" d="M164.335 86.9446L140.394 60.5469L141.066 59.9375L165.007 86.3352L164.335 86.9446Z" fill="white"/>
<path fill-rule="evenodd" clip-rule="evenodd" d="M188.372 62.062L164.416 45.7639L164.926 45.0139L188.882 61.312L188.372 62.062Z" fill="white"/>
<path fill-rule="evenodd" clip-rule="evenodd" d="M212.378 44.5434L188.437 33.4612L188.818 32.6381L212.759 43.7202L212.378 44.5434Z" fill="white"/>
<path fill-rule="evenodd" clip-rule="evenodd" d="M235.896 31.9023L212.417 23.5798L212.72 22.7249L236.199 31.0473L235.896 31.9023Z" fill="white"/>
<path fill-rule="evenodd" clip-rule="evenodd" d="M260.321 24.3335L236.38 16.2567L236.67 15.3972L260.611 23.474L260.321 24.3335Z" fill="white"/>
<path fill-rule="evenodd" clip-rule="evenodd" d="M284.248 21.0571L260.292 11.1019L260.64 10.2643L284.596 20.2194L284.248 21.0571Z" fill="white"/>
<path fill-rule="evenodd" clip-rule="evenodd" d="M308.15 21.862L284.208 9.08938L284.635 8.28906L308.577 21.0617L308.15 21.862Z" fill="white"/>
<path fill-rule="evenodd" clip-rule="evenodd" d="M332.052 27.0584L308.096 9.53213L308.631 8.80005L332.587 26.3263L332.052 27.0584Z" fill="white"/>
<path fill-rule="evenodd" clip-rule="evenodd" d="M355.95 37.2675L331.995 12.7047L332.644 12.0714L356.6 36.6341L355.95 37.2675Z" fill="white"/>
<path fill-rule="evenodd" clip-rule="evenodd" d="M379.842 53.5047L355.901 18.4667L356.65 17.955L380.591 52.993L379.842 53.5047Z" fill="white"/>
<path fill-rule="evenodd" clip-rule="evenodd" d="M403.764 77.4155L379.808 27.4954L380.626 27.1029L404.581 77.0231L403.764 77.4155Z" fill="white"/>
<path fill-rule="evenodd" clip-rule="evenodd" d="M427.684 111.78L403.742 39.9841L404.603 39.6971L428.544 111.493L427.684 111.78Z" fill="white"/>
<path fill-rule="evenodd" clip-rule="evenodd" d="M444.862 148.838L427.668 56.9012L428.56 56.7345L445.754 148.671L444.862 148.838Z" fill="white"/>
<path fill-rule="evenodd" clip-rule="evenodd" d="M296.407 0.000976562L308.415 8.64456L322.737 2.17942L332.438 11.8658L346.523 6.94886L356.439 17.7194L371.259 14.9984L380.442 26.8505L397.179 27.2414L404.456 39.4326L420.896 42.5412L428.41 56.4137L440.02 58.7009L446.386 73.0472L445.557 73.4151L439.382 59.4998L427.816 57.2212L420.304 43.3523L403.887 40.248L396.657 28.1365L379.989 27.7472L370.88 15.9902L356.11 18.7019L346.26 8.00168L332.199 12.9098L322.539 3.26389L308.31 9.68697L296.391 1.10774L284.43 9.23081L272.792 1.90445L261.136 11.2008L247.311 5.76605L236.637 16.3534L224.425 11.7723L212.283 23.6414L198.922 21.1335L188.842 33.503H172.921L164.927 45.8271L150.248 46.7355L144.191 58.5905L130.059 60.6569L123.274 73.8147L122.467 73.399L129.466 59.8268L143.596 57.7608L149.676 45.8621L164.414 44.95L172.429 32.5959H188.411L198.559 20.1425L211.986 22.6628L224.204 10.7204L236.411 15.2998L247.092 4.7054L260.98 10.1649L272.73 0.793615L284.412 8.14711L296.407 0.000976562Z" fill="white"/>
<path fill-rule="evenodd" clip-rule="evenodd" d="M284.404 0L296.409 7.90698L308.393 0.612808L320.406 9.81504L333.827 4.05301L345.195 14.5667L358.725 10.496L368.427 21.8655L383.306 20.1737L393.664 33.299L408.396 33.9219L416.423 47.4265L430.773 50.3514L436.695 63.495L446.055 65.229L445.89 66.1209L436.063 64.3005L430.137 51.1475L415.849 48.2351L407.867 34.8074L393.21 34.1877L382.907 21.1321L368.05 22.8213L358.42 11.5352L344.96 15.5847L333.644 5.11892L320.276 10.858L308.334 1.71045L296.39 8.98054L284.44 1.10958L272.928 9.79767L260.037 3.44605L247.663 13.6131L234.811 8.77204L224.459 19.6867L211.395 16.2077L200.792 28.2797L186.23 26.8077L176.165 39.7286L161.494 39.8728L152.965 52.9488L139.44 53.9005L132.805 66.5893L122.85 66.128L122.892 65.2219L132.27 65.6564L138.87 53.0312L152.451 52.0756L161 38.9706L175.718 38.8259L185.823 25.8548L200.418 27.3303L211.084 15.1863L224.172 18.6715L234.568 7.71092L247.492 12.5794L259.913 2.3738L272.827 8.737L284.404 0Z" fill="white"/>
<path fill-rule="evenodd" clip-rule="evenodd" d="M284.409 20.0819L295.946 27.8939L308.443 20.8976L317.802 30.3726L332.49 26.172L341.03 37.1952L356.518 36.4859L364.577 49.2219L380.527 52.8546L387.583 67.0105L404.361 76.5423L410.918 92.8907L428.391 110.986L432.956 127.825L445.694 148.517L444.922 148.993L432.115 128.188L427.577 111.448L410.142 93.3931L403.637 77.1743L386.895 67.6627L379.907 53.6437L364.011 50.0232L356.033 37.4162L340.601 38.1229L332.149 27.213L317.535 31.3926L308.284 22.0266L295.901 28.9588L284.435 21.1951L272.499 30.1217L260.208 24.4509L249.921 35.1406L236.701 31.9833L226.717 44.5856H212.808L202.643 59.4442L188.936 62.6727L181.56 77.2106L165.018 86.9621L155.169 106.89L141.118 119.152L134.843 137.07L124.105 149.057L123.429 148.452L134.047 136.599L140.342 118.626L154.437 106.326L164.325 86.3179L180.871 76.5638L188.318 61.8864L202.093 58.6419L212.33 43.6785H226.278L236.349 30.9667L249.627 34.1379L260.002 23.3569L272.389 29.0717L284.409 20.0819Z" fill="white"/>
<path fill-rule="evenodd" clip-rule="evenodd" d="M295.687 20.0836L307.53 28.7556L318.649 22.5655L330.1 33.4065L343.709 30.3229L355.05 43.245H367.642L376.641 58.1503L390.959 62.2435L400.334 80.0196L415.061 90.5662L423.611 111.405L437.414 128.81L442.669 148.639L441.792 148.871L436.586 129.226L422.821 111.868L414.321 91.1518L399.631 80.6323L390.338 63.0092L376.048 58.9244L367.13 44.1521H354.639L343.383 31.3268L329.828 34.3982L318.509 23.6818L307.463 29.8309L295.668 21.1934L284.104 29.0417L271.488 22.3446L260.571 32.2818L247.981 27.845L238.143 39.3652L224.53 37.8077L215.08 51.0831L200.3 53.275L192.283 67.5959L177.005 73.7907L168.162 91.1327L152.425 102.611L143.335 123.517L131.518 134.916L128.211 148.86L127.328 148.65L130.697 134.448L142.575 122.989L151.691 102.023L167.452 90.5276L176.351 73.0772L191.647 66.875L199.726 52.4431L214.565 50.2425L224.101 36.8457L237.767 38.4091L247.695 26.7826L260.361 31.2461L271.349 21.2441L284.047 27.9843L295.687 20.0836Z" fill="white"/>
<path d="M125.126 148.755L121.181 54.1449H89.1917L85.2472 148.755H125.126Z" fill="white"/>
<path d="M119.649 47.8308H90.7233V54.1449H119.649V47.8308Z" fill="white"/>
<path d="M118.031 46.2992H92.327V47.8307H118.031V46.2992Z" fill="white"/>
<path d="M108.943 86.8133V81.2939C108.943 79.2133 107.252 77.5372 105.186 77.5372C103.106 77.5372 101.43 79.2277 101.43 81.2939V86.8133H108.943Z" fill="#0F167A"/>
<path fill-rule="evenodd" clip-rule="evenodd" d="M101.257 81.2939C101.257 79.1329 103.01 77.3646 105.186 77.3646C107.347 77.3646 109.116 79.1175 109.116 81.2939V86.986H101.257V81.2939ZM105.186 77.7099C103.201 77.7099 101.602 79.3227 101.602 81.2939V86.6407H108.77V81.2939C108.77 79.3091 107.158 77.7099 105.186 77.7099Z" fill="white"/>
<path d="M110.893 57.8864H99.4929V61.6863H110.893V57.8864Z" fill="#0F167A"/>
<path fill-rule="evenodd" clip-rule="evenodd" d="M99.3208 57.7144H111.066V61.8597H99.3208V57.7144ZM99.6661 58.0597V61.5144H110.721V58.0597H99.6661Z" fill="white"/>
<path d="M481.43 148.755L477.485 54.1449H445.496L441.551 148.755H481.43Z" fill="white"/>
<path d="M475.954 47.8308H447.027V54.1449H475.954V47.8308Z" fill="white"/>
<path d="M474.335 46.2992H448.631V47.8307H474.335V46.2992Z" fill="white"/>
<path d="M465.247 86.8133V81.2939C465.247 79.2133 463.557 77.5372 461.49 77.5372C459.41 77.5372 457.734 79.2277 457.734 81.2939V86.8133H465.247Z" fill="#0F167A"/>
<path fill-rule="evenodd" clip-rule="evenodd" d="M457.561 81.2939C457.561 79.1329 459.314 77.3646 461.49 77.3646C463.651 77.3646 465.42 79.1175 465.42 81.2939V86.986H457.561V81.2939ZM461.49 77.7099C459.506 77.7099 457.906 79.3227 457.906 81.2939V86.6407H465.074V81.2939C465.074 79.3091 463.462 77.7099 461.49 77.7099Z" fill="white"/>
<path d="M467.197 57.8864H455.797V61.6863H467.197V57.8864Z" fill="#0F167A"/>
<path fill-rule="evenodd" clip-rule="evenodd" d="M455.625 57.7144H467.37V61.8597H455.625V57.7144ZM455.97 58.0597V61.5144H467.025V58.0597H455.97Z" fill="white"/>
<path d="M526.582 84.2271H53.0989V87.2324H526.582V84.2271Z" fill="#0F167A"/>
<path fill-rule="evenodd" clip-rule="evenodd" d="M47 84H521.39V87.9124H47V84ZM47.9071 84.9071V87.0053H520.483V84.9071H47.9071Z" fill="white"/>
<path d="M526.582 85.224H53.0989V86.2354H526.582V85.224Z" fill="#0F167A"/>
<path fill-rule="evenodd" clip-rule="evenodd" d="M47 85H521.39V86.9185H47V85ZM47.9071 85.9071V86.0114H520.483V85.9071H47.9071Z" fill="white"/>
<path d="M99.4068 148.755L95.1011 45.4468H63.1117L58.806 148.755H99.4068Z" fill="white"/>
<path fill-rule="evenodd" clip-rule="evenodd" d="M62.8943 45.22H95.3187L99.6433 148.982H58.5697L62.8943 45.22ZM63.3293 45.6735L59.0425 148.528H99.1705L94.8837 45.6735H63.3293Z" fill="#0F167A"/>
<path d="M93.5695 39.1327H64.6433V45.4468H93.5695V39.1327Z" fill="white"/>
<path d="M91.9513 37.6011H66.2471V39.1326H91.9513V37.6011Z" fill="white"/>
<path d="M82.8776 78.1152V72.5958C82.8776 70.5152 81.1871 68.8391 79.1209 68.8391C77.0403 68.8391 75.3643 70.5296 75.3643 72.5958V78.1152H82.8776Z" fill="#0F167A"/>
<path fill-rule="evenodd" clip-rule="evenodd" d="M75.1917 72.5957C75.1917 70.4346 76.9446 68.6664 79.121 68.6664C81.282 68.6664 83.0503 70.4193 83.0503 72.5957V78.2878H75.1917V72.5957ZM79.121 69.0117C77.1361 69.0117 75.537 70.6245 75.537 72.5957V77.9424H82.705V72.5957C82.705 70.6109 81.0922 69.0117 79.121 69.0117Z" fill="white"/>
<path d="M84.8131 49.1882H73.4131V52.9882H84.8131V49.1882Z" fill="#0F167A"/>
<path fill-rule="evenodd" clip-rule="evenodd" d="M73.2411 49.0162H84.9864V53.1616H73.2411V49.0162ZM73.5864 49.3616V52.8162H84.6411V49.3616H73.5864Z" fill="white"/>
<path d="M505.559 148.755L501.268 45.4468H469.264L464.973 148.755H505.559Z" fill="white"/>
<path fill-rule="evenodd" clip-rule="evenodd" d="M469.046 45.22H501.485L505.795 148.982H464.736L469.046 45.22ZM469.481 45.6735L465.209 148.528H505.323L501.05 45.6735H469.481Z" fill="#0F167A"/>
<path d="M499.736 39.1327H470.81V45.4468H499.736V39.1327Z" fill="white"/>
<path d="M498.118 37.6011H472.414V39.1326H498.118V37.6011Z" fill="white"/>
<path d="M489.03 78.1152V72.5958C489.03 70.5152 487.339 68.8391 485.273 68.8391C483.192 68.8391 481.516 70.5296 481.516 72.5958V78.1152H489.03Z" fill="#0F167A"/>
<path fill-rule="evenodd" clip-rule="evenodd" d="M481.344 72.5957C481.344 70.4346 483.097 68.6664 485.273 68.6664C487.434 68.6664 489.202 70.4193 489.202 72.5957V78.2878H481.344V72.5957ZM485.273 69.0117C483.288 69.0117 481.689 70.6245 481.689 72.5957V77.9424H488.857V72.5957C488.857 70.6109 487.244 69.0117 485.273 69.0117Z" fill="white"/>
<path d="M490.965 49.1882H479.565V52.9882H490.965V49.1882Z" fill="#0F167A"/>
<path fill-rule="evenodd" clip-rule="evenodd" d="M479.393 49.0162H491.138V53.1616H479.393V49.0162ZM479.739 49.3616V52.8162H490.793V49.3616H479.739Z" fill="white"/>
<path fill-rule="evenodd" clip-rule="evenodd" d="M570 149.208H0V148.301H570V149.208Z" fill="white"/>
</svg>
