<svg width="420" height="227" viewBox="0 0 420 227" fill="none" xmlns="http://www.w3.org/2000/svg">
<path d="M364.505 112.265C381.213 113.785 397.668 116.518 413.994 120.553C393.402 114.647 373.031 111.081 350.602 109.522V111.338C355.242 111.557 359.983 111.86 364.505 112.265Z" fill="white"/>
<path d="M358.965 91.7761C362.984 93.0082 367.201 94.2154 371.369 94.8032C367.232 94.0546 362.997 92.6926 359.039 91.3082C356.281 90.3229 353.696 89.2556 350.602 88.1481V89.0182C353.696 89.9873 356.26 90.9223 358.965 91.7761Z" fill="white"/>
<path d="M362.398 100.472C358.478 99.4785 355.242 98.5295 350.602 97.6146V97.8466C355.242 98.6834 358.475 99.5558 362.398 100.472Z" fill="white"/>
<path d="M68.0219 163.455C72.4813 164.544 76.9964 164.686 81.3846 164.414C85.803 164.123 89.9964 163.423 94.1983 162.652C98.7095 161.788 103.171 161.271 107.602 159.725H59.1997C61.9205 162.045 64.9584 162.709 68.0219 163.455Z" fill="white"/>
<path d="M371.2 108.659C387.236 111.094 403.363 114.108 419.237 117.768C403.776 112.633 387.686 108.589 371.629 105.628C364.734 104.334 358.336 103.245 350.602 102.324V105.997C358.336 106.774 364.454 107.66 371.2 108.659Z" fill="white"/>
<path d="M351.096 93.7213C359.747 96.1474 368.743 97.9541 377.658 98.9974C386.581 99.9618 395.629 100.313 404.55 99.8605C386.693 99.2039 368.812 96.1482 351.93 90.7793C351.58 90.6679 351.375 90.5449 350.602 90.432V93.6718C351.375 93.6872 351.038 93.7058 351.096 93.7213Z" fill="white"/>
<path d="M129.295 172.308C114.742 179.871 100.534 188.049 86.6492 196.766C73.1325 206.065 59.9136 215.743 47.2809 226.148C60.8966 217.072 74.6383 208.239 88.7652 200.096C102.53 191.382 116.666 183.329 131.112 175.807C142.184 170.045 153.45 165.138 164.887 159.725H155.239C146.484 163.592 137.83 167.866 129.295 172.308Z" fill="white"/>
<path d="M365.466 118.983C381.725 119.026 398.209 120.014 414.315 122.853C406.446 120.591 398.446 119.071 390.34 117.831C382.226 116.596 373.778 115.686 365.579 115.048C360.682 114.857 356.016 114.772 350.602 114.769V118.707C356.016 118.711 360.62 118.794 365.466 118.983Z" fill="white"/>
<path d="M34.1494 161.728C29.9754 164.07 26.0643 166.648 22.0937 169.306C18.164 172.025 14.3489 174.824 10.6396 177.848C6.91805 180.852 3.33644 184.006 0 187.504C4.31324 185.324 8.42385 182.875 12.4649 180.352C16.519 177.851 20.4718 175.205 24.4169 172.559C28.3211 169.852 32.0024 167.151 35.8145 164.295C39.5864 161.503 43.5632 158.64 46.6568 155.493V155.423C42.7898 157.226 38.2569 159.398 34.1494 161.728Z" fill="white"/>
<path d="M215.579 127.858C247.983 119.318 280.776 113.221 314.262 111.473C326.462 110.807 339.001 110.745 350.602 111.338V109.522C339.001 108.632 326.403 108.391 314.145 108.758C280.385 109.827 247.08 115.606 214.354 123.664C197.982 127.704 181.83 132.272 165.714 137.127C150.51 141.704 135.423 146.489 120.21 150.745C137.648 144.301 154.903 137.534 172.433 131.514C193.999 124.049 215.902 117.438 238.251 112.752C260.574 108.07 283.408 105.291 306.286 105.922C283.425 104.814 260.478 107.119 237.98 111.351C215.456 115.588 193.338 121.768 171.546 128.807C149.734 135.793 128.297 143.954 106.681 151.121C101.284 152.849 95.8232 154.606 90.4225 155.777C85.0041 156.933 79.472 157.529 74.1503 156.978C68.8463 156.454 63.7867 154.619 60.0164 151.245C58.1332 149.569 56.5655 147.548 55.3729 145.304C54.7743 144.183 54.2708 143.008 53.864 141.803C53.465 140.638 53.1293 139.278 53.0032 138.267L52.9159 138.279C52.0048 132.247 52.4549 125.827 53.4882 119.598C53.5261 119.385 53.5709 119.174 53.6104 118.962C53.6939 119.948 53.7782 120.554 53.7782 120.554C53.7782 120.554 59.3188 138.728 109.792 120.776C200.06 88.6679 249.565 87.5349 280.063 87.6161C281.458 87.7159 282.531 87.8179 283.924 87.9301C306.433 89.7244 328.947 93.1505 350.602 97.8466V97.6146C328.947 92.5086 306.583 88.6594 284.06 86.4382C257.51 83.7971 230.858 83.4467 204.212 85.5774C177.553 87.6586 151.217 92.3787 125.214 98.3895L105.785 102.965C99.3259 104.534 92.9361 105.926 86.4597 106.82C80.0358 107.674 73.4418 108.195 67.4557 107.116C64.5184 106.569 61.7434 105.45 60.3381 103.715C59.6328 102.86 59.2407 101.878 59.1347 100.734C59.0497 99.9734 59.1517 99.04 59.3459 98.2271C62.448 89.7197 66.3389 81.4413 70.6986 73.4823C70.8332 73.2394 70.9786 73.002 71.1139 72.7599C75.7798 75.6199 89.3197 80.309 126.529 77.3291C178.211 73.1907 193.469 37.6322 193.469 37.6322C144.741 54.9524 92.8116 41.8186 92.8116 41.8186C93.0042 41.5626 93.2006 41.3143 93.3947 41.0614C94.9949 39.2555 96.6376 37.4906 98.3205 35.7667C103.206 36.5773 108.024 37.1859 112.898 37.6732C118.243 38.196 123.601 38.551 128.966 38.6716C134.328 38.7892 139.699 38.684 145.037 38.2029C150.365 37.7134 155.684 36.8657 160.768 35.271C155.561 36.3878 150.252 36.7327 144.97 36.7281C139.685 36.7142 134.41 36.3282 129.167 35.725C123.924 35.1186 118.71 34.2857 113.533 33.2896C110.071 32.6167 106.598 31.8665 103.177 31.0405C110.266 24.5571 118.054 18.7373 126.478 14.2647C143.521 6.04428 157.785 5.36681 157.785 5.36681C157.23 5.35443 156.493 5.34822 155.608 5.36292C158.932 5.06206 162.279 4.97545 165.625 5.12395C173.769 5.48898 181.885 7.03346 189.8 9.37764C205.654 14.1077 220.689 21.636 235.415 29.5834C250.146 37.5842 264.601 46.1705 279.269 54.4396C293.955 62.6802 308.911 70.4559 324.163 77.6014C331.797 81.159 339.193 84.5403 347.046 87.5883C348.331 88.0832 349.829 88.5473 350.602 89.0183V88.1482C349.829 87.6687 348.577 87.1838 347.409 86.6903C339.675 83.4274 332.246 79.8349 324.745 76.07C309.738 68.5402 295.206 60.2556 280.725 51.7629C266.244 43.2679 251.953 34.4566 237.263 26.165C222.565 17.9322 207.494 10.0366 191.152 4.86565C182.994 2.31497 174.509 0.493591 165.844 0.0991669C157.192 -0.33316 148.423 0.646744 140.079 3.07909C131.724 5.49673 123.843 9.29718 116.584 13.9221C109.318 18.5834 102.64 23.9276 96.4349 29.909C84.1487 41.9052 74.0667 55.8534 65.7024 70.705C61.5423 78.1505 57.8408 85.862 54.7364 93.8412C54.5817 94.2387 54.4363 94.6401 54.284 95.0392L54.185 94.9982C53.9452 95.6184 53.7821 96.1668 53.656 96.7043C51.0581 103.791 48.7642 111.107 47.5237 118.646C47.2755 120.23 47.4301 121.83 46.6567 123.442V137.847C47.4301 138.217 46.6567 138.587 46.6567 138.957V138.97C47.4301 140.114 47.3141 141.091 47.598 142.042C47.8192 143.015 48.1912 143.987 48.4858 144.957C49.8362 149.308 52.2368 153.639 55.6962 156.921C56.7581 157.947 57.9801 158.951 59.1997 159.725H107.602C111.396 158.951 115.169 157.704 118.924 156.658C151.41 147.415 183.114 136.315 215.579 127.858Z" fill="white"/>
<path d="M274.463 99.2364C258.169 100.113 241.882 101.888 225.956 105.379C234.041 104.398 242.133 103.667 250.245 103.239C258.35 102.735 266.462 102.448 274.569 102.296C290.787 102.04 306.686 102.388 322.858 103.482C332.231 104.076 341.321 104.929 350.602 105.997V102.324C341.321 101.102 332.409 100.184 323.113 99.5558C306.81 98.5311 290.769 98.3493 274.463 99.2364Z" fill="white"/>
<path d="M279.152 58.7481C271.173 54.7009 263.092 50.7983 254.799 47.3861C246.524 43.9368 238.063 40.8872 229.395 38.5423C225.053 37.4054 220.659 36.4448 216.217 35.7975C211.791 35.1865 207.246 34.7209 202.822 35.485C205.042 35.2515 207.272 35.458 209.472 35.7202C211.675 35.9785 213.864 36.3582 216.035 36.8222C220.373 37.7511 224.641 38.9839 228.848 40.3869C237.278 43.1432 245.489 46.5439 253.574 50.1989C261.638 53.9105 269.602 57.837 277.431 62.0513C285.322 66.24 292.981 70.2864 301.037 74.182C317.142 81.817 334.361 88.8464 350.602 93.6716V90.4319C334.361 85.1217 318.429 78.1518 302.734 70.6298C294.697 66.8254 287.075 62.8185 279.152 58.7481Z" fill="white"/>
<path d="M204.151 63.3368C204.784 64.8078 205.671 66.2068 206.879 67.3669C208.073 68.517 209.74 69.3863 211.472 69.4628C213.276 69.5541 214.929 68.8527 216.212 67.8573C217.507 66.8526 218.481 65.5742 219.27 64.2347C220.831 61.5332 221.641 58.5108 221.903 55.4806C222.165 52.4504 221.882 49.346 220.801 46.4458C220.251 45.0042 219.507 43.5966 218.405 42.4125C217.313 41.2362 215.78 40.2973 214.016 40.1201C212.251 39.9338 210.483 40.5455 209.101 41.503C207.708 42.4666 206.592 43.7172 205.719 45.0745C203.964 47.8031 203.078 50.9222 202.783 54.0452C202.539 57.1712 202.885 60.3808 204.151 63.3368Z" fill="white"/>
<path d="M227.65 70.7095C228.7 71.7807 230.203 72.6299 231.816 72.6886C233.482 72.7521 234.934 72.0529 236.054 71.1256C237.148 70.2555 237.973 69.1557 238.64 68.0049C239.964 65.6855 240.653 63.0954 240.87 60.5007C241.097 57.9059 240.865 55.247 239.955 52.7605C239.49 51.5231 238.863 50.3142 237.937 49.2903C236.998 48.2114 235.66 47.2995 234.031 47.1147C232.397 46.9299 230.786 47.5493 229.563 48.4457C228.375 49.2848 227.421 50.3637 226.677 51.5331C225.181 53.8866 224.422 56.5656 224.168 59.247C223.96 61.9315 224.254 64.6886 225.329 67.2331C225.87 68.4976 226.621 69.7049 227.65 70.7095Z" fill="white"/>
<path d="M246.781 73.93C247.685 74.9169 249.031 75.7467 250.519 75.7924C252.047 75.8287 253.305 75.1249 254.255 74.2726C255.149 73.534 255.823 72.6137 256.374 71.6516C257.457 69.7127 258.021 67.5572 258.208 65.3971C258.394 63.2378 258.205 61.0244 257.467 58.9501C257.089 57.9153 256.583 56.9068 255.823 56.0452C255.041 55.0591 253.901 54.1782 252.405 53.9849C250.901 53.807 249.45 54.4288 248.384 55.2664C247.402 55.9779 246.613 56.8874 245.996 57.8697C244.755 59.8434 244.125 62.0862 243.913 64.3244C243.741 66.5696 243.982 68.8736 244.87 71.0027C245.312 72.0661 245.933 73.0785 246.781 73.93Z" fill="white"/>
<path d="M262.632 76.9029C263.394 77.8054 264.578 78.6183 265.943 78.6492C267.335 78.657 268.398 77.9539 269.181 77.1697C269.872 76.568 270.4 75.8248 270.827 75.0498C271.674 73.4945 272.115 71.7714 272.261 70.0467C272.41 68.3213 272.271 66.5564 271.701 64.892C271.411 64.0645 271.019 63.2532 270.438 62.5533C269.804 61.6639 268.865 60.8093 267.507 60.6097C266.132 60.4349 264.835 61.0614 263.928 61.8402C263.149 62.4264 262.524 63.1627 262.037 63.9601C261.051 65.554 260.553 67.3592 260.377 69.1542C260.242 70.9601 260.432 72.8124 261.128 74.5301C261.481 75.3855 261.967 76.2045 262.632 76.9029Z" fill="white"/>
<path d="M278.487 79.8782C279.106 80.6988 280.129 81.4923 281.371 81.5085C282.624 81.4853 283.492 80.7847 284.105 80.0708C284.597 79.6006 284.976 79.0375 285.283 78.4536C285.889 77.2765 286.207 75.988 286.314 74.6988C286.429 73.4072 286.335 72.0894 285.94 70.8395C285.736 70.2146 285.46 69.5998 285.05 69.0638C284.573 68.2672 283.83 67.442 282.603 67.2355C281.359 67.063 280.223 67.6964 279.473 68.4149C278.902 68.8751 278.438 69.4405 278.08 70.0491C277.354 71.2657 276.979 72.6331 276.847 73.988C276.747 75.3515 276.882 76.7506 277.391 78.0569C277.647 78.7073 278.003 79.3353 278.487 79.8782Z" fill="white"/>
<path d="M291.064 82.6043C291.538 83.3421 292.397 84.1194 293.518 84.1194C294.636 84.0707 295.305 83.3661 295.751 82.7242C296.045 82.3878 296.273 82.0034 296.462 81.6074C296.828 80.8124 297.024 79.9562 297.093 79.1024C297.17 78.247 297.124 77.3738 296.897 76.5355C296.78 76.1171 296.62 75.7017 296.388 75.3274C296.062 74.6236 295.516 73.8293 294.424 73.6135C293.309 73.4457 292.33 74.083 291.736 74.7427C291.373 75.0753 291.077 75.4728 290.842 75.892C290.373 76.7311 290.129 77.6615 290.038 78.571C289.975 79.4983 290.058 80.4419 290.378 81.3359C290.536 81.783 290.761 82.2168 291.064 82.6043Z" fill="white"/>
<path d="M304.028 86.6075C305.009 86.5309 305.481 85.8255 305.759 85.2525C306.044 84.6523 306.181 84.0174 306.232 83.3847C306.289 82.7505 306.262 82.1047 306.085 81.4651C305.913 80.8588 305.568 80.0939 304.609 79.8673C303.623 79.7057 302.801 80.346 302.365 80.9477C301.891 81.5657 301.667 82.3306 301.588 83.0359C301.546 83.7637 301.638 84.5154 301.999 85.2091C302.333 85.865 303.03 86.6221 304.028 86.6075Z" fill="white"/>
<path d="M220.219 134.995C198.028 141.732 176.329 150.444 155.24 159.725H164.887C183.294 151.991 202.147 144.598 221.363 138.762C252.511 129.307 284.289 122.873 316.72 120.168C328.096 119.219 339.775 118.697 350.602 118.707V114.769C339.775 114.76 327.874 115.286 316.395 116.244C283.662 118.974 251.615 125.464 220.219 134.995Z" fill="white"/>
</svg>
